<?xml version="1.0" encoding="UTF-8"?>
<!DOCTYPE svg PUBLIC "-//W3C//DTD SVG 1.1//EN" "http://www.w3.org/Graphics/SVG/1.1/DTD/svg11.dtd">
<!-- Creator: CorelDRAW 2018 (64-Bit) -->
<svg xmlns="http://www.w3.org/2000/svg" xml:space="preserve" width="1207px" height="307px" version="1.1" style="shape-rendering:geometricPrecision; text-rendering:geometricPrecision; image-rendering:optimizeQuality; fill-rule:evenodd; clip-rule:evenodd"
viewBox="0 0 2519.73 640.88"
 xmlns:xlink="http://www.w3.org/1999/xlink">
 <defs>
  <style type="text/css">
   <![CDATA[
    .fil1 {fill:#040000}
    .fil4 {fill:#581414}
    .fil2 {fill:#711A1A}
    .fil3 {fill:#972323}
    .fil0 {fill:#E13333}
   ]]>
  </style>
 </defs>
 <g id="Слой_x0020_1">
  <metadata id="CorelCorpID_0Corel-Layer"/>
  <g id="_1448730428272">
   <path class="fil0" d="M460.22 375.36l-13.63 26.37 -6.96 -34.35c3.05,-37.59 -6.19,-78.27 -11.35,-114.69 -19.04,-134.66 17.04,-109.59 -169.49,-109.46 -16.46,74.56 -10.97,183.61 -43.26,245.01l-36.83 -243.52 -156.66 -1.8c0.33,55.69 41.9,281.5 55.63,363.9l13.98 90.27c12.24,40.19 7.45,24.75 200.78,24.26l38.05 -224.54 40.17 224.56 192.96 0.22 76.83 -476.35 -129.08 -1.52c-31.93,5.52 -6.74,0.7 -19.4,7.28l-31.74 224.36z"/>
   <path class="fil1" d="M2344.69 143.72l4.18 -120.12c30.3,-5.51 53.26,-3.72 83.91,-3.9 40.54,-0.22 47.31,-4.38 72.84,8.08l-1.09 593.94c-389.12,1.27 -349.3,25.13 -349.29,-166.49 0,-76.1 -5.98,-179.56 0.37,-252.32 6.74,-77.28 82,-62.24 189.08,-59.19zm-1329.31 294.12l26.09 17.39c-53.76,-4.58 -13.78,-3.52 -26.09,-17.39zm970.68 35.85l146.5 2.79c4.12,110.37 16.6,144.7 -99.7,145.59 -84.63,0.64 -168.41,6.89 -237.83,-16.02 -14.6,-46.61 -22.84,-355.19 -9.61,-416.77 13.45,-62.55 104.43,-46.15 169.09,-46.15 85.01,0.01 151.01,-14.96 170.66,36.36 23.7,20.88 16.44,227.62 8.61,267.08l-191.24 1.02 0.44 50.48c12.6,-1.1 35.08,-4.57 38.95,-19.03 0.8,-2.97 2.53,-3.76 4.13,-5.35zm-648.94 -166.29l52.18 0 -8.7 60.87c0,-33.04 -8.9,-32.69 -38.73,-56.92 -0.97,-0.8 -3.19,-2.6 -4.75,-3.95zm-704.35 60.87l-8.69 0c0,-29.98 6.43,-33.67 8.69,-60.87l43.48 0c-1.55,1.35 -4.05,1.32 -4.75,3.95 -3.76,14.04 -38.73,9.24 -38.73,56.92zm729.93 -185.2c38.58,-26.89 0.62,12.82 59.84,-38.79l140.67 0.48c21.21,46.28 37.58,28.9 198.64,30.93l-0.01 116.27 -190.04 0.45 -4.67 172.49c4.17,60.3 -5.18,25.46 22.17,37.3 22.27,-12.07 15.7,17.47 18.78,-37.37l-0.71 -142.05 154.27 1.61c0.51,55.2 0.16,110.42 0.23,165.62 0.08,51.25 10.68,108.11 -37.57,125.61 -62.22,22.57 -251.2,11.47 -300.58,-11.94l-6.69 -27c-24.93,-43.94 -8.14,-217.21 -8.14,-281.98 -38.71,-1.17 -174.07,16.68 -191.73,-8.4 -24.13,-35.03 16.31,-19.49 -36.56,-22.28 -11.3,22.69 -8.06,27.08 -5.19,56.95 34.41,3.05 66.71,1.13 101.03,1.65 15.37,0.24 35.23,0.08 49.99,4.25 79.29,22.43 35.7,266.15 34.97,267.43 -48.01,43.25 -261.96,37.52 -332.73,12.63 -14.39,-43.67 -12.93,-76.18 -10.31,-133.64 193.89,-0.95 123.91,-3.13 160.53,21.34 23.46,15.68 6.39,9.51 32.22,1.57l0.01 -47.09c-58.5,-18.85 -159.03,15.8 -186.74,-37.49 -11.45,-22.02 -10.71,-182.62 -6.45,-216.16 8.95,-70.38 101.57,-52.33 171.36,-52.33 69.43,0.01 149.81,-16.51 173.41,39.94zm-717.28 104.32c-0.17,-103.59 -17.51,-144.3 100.19,-144.4 291.11,-0.25 258.87,-75.73 249.39,475.7 -58.74,8.67 -151.73,2.98 -214.4,3.14 -79.54,0.2 -132.25,9.81 -135.33,-70.59 -10.25,-267.17 -20.3,-209.45 192.09,-230.71 2.84,-28.65 5.78,-33.84 -4.59,-56.29 -22.33,0.31 -19.14,-9.57 -43.49,28.79l-143.86 -5.64zm-205.79 79.99l20.59 7.98 31.74 -224.36c12.66,-6.58 -12.53,-1.76 19.4,-7.28l129.08 1.52 -76.83 476.35 -192.96 -0.22 -40.17 -224.56 -38.05 224.54c-193.33,0.49 -188.54,15.93 -200.78,-24.26l-13.98 -90.27c-13.73,-82.4 -55.3,-308.21 -55.63,-363.9l156.66 1.8 36.83 243.52c32.29,-61.4 26.8,-170.45 43.26,-245.01 186.53,-0.13 150.45,-25.2 169.49,109.46 5.16,36.42 14.4,77.1 11.35,114.69zm1888.8 -320.85l0 78.26c-128.6,0 -113.31,-11.62 -182.61,34.78 -30.17,-20.2 -33.08,-34.78 -86.96,-34.78l-200 0c-53.88,0 -56.79,14.58 -86.96,34.78 -40.39,-19.38 -126.97,-8.69 -182.6,-8.69 -11.72,-43.89 -79.09,-26.09 -191.31,-26.09 -6.87,25.73 -3.54,14.1 -17.39,34.78 -30.17,-20.2 -33.08,-34.78 -86.96,-34.78l-200 0c-53.88,0 -56.79,14.58 -86.95,34.78 -30.17,-20.2 -33.08,-34.78 -86.96,-34.78l-245.42 6.82c-26.61,2.13 -22.62,-5.52 -58.6,-7.12 -44.05,-1.96 -94.63,0.3 -139.46,0.3 -8.22,35.29 -17.39,87.6 -17.39,130.44 -45.6,-33.41 3.89,-130.44 -52.18,-130.44l-156.52 0c-15.53,32.38 -26.08,99.33 -26.08,147.83l-8.7 0c0,-23.51 -6.57,-55.56 -10.72,-84.94 -10.98,-77.73 9.49,-62.89 -180.59,-62.89 -40.7,0 -19.92,42.1 -8.69,113.04 7.26,45.89 17.72,99.47 23.98,141.24l31.63 203.16c11.98,72.46 -18.29,55.61 231.35,55.61 9.71,-20.25 26.08,-100.17 26.08,-130.44l8.7 0c0,53.95 13.59,84.77 17.39,130.44l217.39 0c18.39,-38.31 43.48,-193.45 43.48,-252.18l8.7 0c0,293.29 -38.96,252.18 365.21,252.18 19.5,0 19.09,-6.89 34.79,-17.39 58.93,31.18 186.82,17.39 286.95,17.39 25.27,0 41.46,-8.6 54.89,-23.38 29.21,-32.16 -1.62,-21.5 32.07,-46.19 0.99,44.42 23.6,69.57 69.57,69.57 49.17,0 236.59,7.8 270.53,-7.73 35.43,-16.22 17.3,-5.47 25.12,-27.06 40.49,10.81 28.34,34.79 78.26,34.79l234.78 0c35.4,0 46.78,-13.74 60.87,-34.79 30.17,20.21 33.08,34.79 86.96,34.79l295.65 0 0 -608.7c0,-42.29 -98.08,-26.09 -182.61,-26.09 -4.54,19.5 -8.69,19.99 -8.69,43.48z"/>
   <path class="fil0" d="M2319.73 263.2c41.6,3.92 29.49,-20.86 29.46,113.77l-0.19 105c-8.35,25.53 2.5,10.03 -20.57,20.23 -10.59,-5.9 -17.43,9.69 -17.87,-46.38l9.17 -192.62zm24.96 -119.48c-107.08,-3.05 -182.34,-18.09 -189.08,59.19 -6.35,72.76 -0.37,176.22 -0.37,252.32 -0.01,191.62 -39.83,167.76 349.29,166.49l1.09 -593.94 -149.62 -0.21c-0.15,27.78 11.79,97.78 -11.31,116.15z"/>
   <path class="fil0" d="M807.57 426.99l31.27 3.01 -0.28 60.05c-10.65,14.57 17.92,16.2 -31.87,13.88 -11.71,-16.83 -9.13,-5.81 -10.76,-31.08 -0.01,-0.05 1.42,-25.76 1.45,-25.92 4.24,-18.27 2.84,-10.71 10.19,-19.94zm-162.15 -139.6l143.86 5.64c24.35,-38.36 21.16,-28.48 43.49,-28.79 10.37,22.45 7.43,27.64 4.59,56.29 -212.39,21.26 -202.34,-36.46 -192.09,230.71 3.08,80.4 55.79,70.79 135.33,70.59 62.67,-0.16 155.66,5.53 214.4,-3.14 9.48,-551.43 41.72,-475.95 -249.39,-475.7 -117.7,0.1 -100.36,40.81 -100.19,144.4z"/>
   <path class="fil0" d="M1947.84 262.4l20.71 0.51c12.72,13.43 17.54,0.49 8.87,69.24l-37.98 -1.18c-14.02,-82.43 2.75,-64.38 8.4,-68.57zm38.22 211.29l-14.21 32.38 -31.19 -2.52c-10.95,-31.32 -10.91,-30.78 -0.01,-63.93l189.66 -0.58 -5.14 -259.55c-19.65,-51.32 -85.65,-36.35 -170.66,-36.36 -64.66,0 -155.64,-16.4 -169.09,46.15 -13.23,61.58 -4.99,370.16 9.61,416.77 69.42,22.91 153.2,16.66 237.83,16.02 116.3,-0.89 103.82,-35.22 99.7,-145.59l-146.5 -2.79z"/>
   <path class="fil0" d="M1417.03 576.68l6.69 27c49.38,23.41 238.36,34.51 300.58,11.94 48.25,-17.5 37.65,-74.36 37.57,-125.61 -0.07,-55.2 0.28,-110.42 -0.23,-165.62l-154.27 -1.61 0.71 142.05c-3.08,54.84 3.49,25.3 -18.78,37.37 -27.35,-11.84 -18,23 -22.17,-37.3l4.67 -172.49 190.04 -0.45 0.01 -116.27c-161.06,-2.03 -177.43,15.35 -198.64,-30.93l-140.67 -0.48 -6.12 28.07 -38.59 6.5 -0.31 15.51 0 78.26 0.2 13.67c41.06,3.52 25.39,-6.06 40.03,21.11l-0.72 269.28z"/>
   <path class="fil0" d="M1217.16 286.3l147.04 -0.33 -1.5 -102.9c-23.6,-56.45 -103.98,-39.93 -173.41,-39.94 -69.79,0 -162.41,-18.05 -171.36,52.33 -4.26,33.54 -5,194.14 6.45,216.16 27.71,53.29 128.24,18.64 186.74,37.49l-0.01 47.09c-25.83,7.94 -8.76,14.11 -32.22,-1.57 -36.62,-24.47 33.36,-22.29 -160.53,-21.34 -2.62,57.46 -4.08,89.97 10.31,133.64 70.77,24.89 284.72,30.62 332.73,-12.63 0.73,-1.28 44.32,-245 -34.97,-267.43 -14.76,-4.17 -34.62,-4.01 -49.99,-4.25 -34.32,-0.52 -66.62,1.4 -101.03,-1.65 -2.87,-29.87 -6.11,-34.26 5.19,-56.95 52.87,2.79 12.43,-12.75 36.56,22.28z"/>
   <path class="fil1" d="M2310.56 455.82c0.44,56.07 7.28,40.48 17.87,46.38 23.07,-10.2 12.22,5.3 20.57,-20.23l0.19 -105c0.03,-134.63 12.14,-109.85 -29.46,-113.77l-9.17 192.62z"/>
   <path class="fil2" d="M1362.7 183.07l1.5 102.9 -147.04 0.33c17.66,25.08 153.02,7.23 191.73,8.4 0,64.77 -16.79,238.04 8.14,281.98l0.72 -269.28c-14.64,-27.17 1.03,-17.59 -40.03,-21.11l-0.2 -13.67 0 -78.26 0.31 -15.51 38.59 -6.5 6.12 -28.07c-59.22,51.61 -21.26,11.9 -59.84,38.79z"/>
   <path class="fil2" d="M1986.06 473.69c-1.6,1.59 -3.33,2.38 -4.13,5.35 -3.87,14.46 -26.35,17.93 -38.95,19.03l-0.44 -50.48 191.24 -1.02c7.83,-39.46 15.09,-246.2 -8.61,-267.08l5.14 259.55 -189.66 0.58c-10.9,33.15 -10.94,32.61 0.01,63.93l31.19 2.52 14.21 -32.38z"/>
   <path class="fil3" d="M2344.69 143.72c23.1,-18.37 11.16,-88.37 11.31,-116.15l149.62 0.21c-25.53,-12.46 -32.3,-8.3 -72.84,-8.08 -30.65,0.18 -53.61,-1.61 -83.91,3.9l-4.18 120.12z"/>
   <polygon class="fil1" points="838.56,490.05 838.84,430 807.57,426.99 805.26,496.92 "/>
   <polygon class="fil1" points="1968.55,262.91 1947.84,262.4 1944.05,325.85 1972.8,325.82 "/>
   <path class="fil4" d="M1968.55 262.91l4.25 62.91 -28.75 0.03 3.79 -63.45c-5.65,4.19 -22.42,-13.86 -8.4,68.57l37.98 1.18c8.67,-68.75 3.85,-55.81 -8.87,-69.24z"/>
   <path class="fil2" d="M838.56 490.05l-33.3 6.87 2.31 -69.93c-7.35,9.23 -5.95,1.67 -10.19,19.94 -0.03,0.16 -1.46,25.87 -1.45,25.92 1.63,25.27 -0.95,14.25 10.76,31.08 49.79,2.32 21.22,0.69 31.87,-13.88z"/>
   <polygon class="fil3" points="460.22,375.36 439.63,367.38 446.59,401.73 "/>
  </g>
 </g>
</svg>
